<mxfile host="65bd71144e">
    <diagram id="1GmK-pve-SpwFPqTjfkk" name="Page-1">
        <mxGraphModel dx="791" dy="420" grid="1" gridSize="10" guides="1" tooltips="1" connect="1" arrows="1" fold="1" page="1" pageScale="1" pageWidth="850" pageHeight="1100" math="0" shadow="0">
            <root>
                <mxCell id="0"/>
                <mxCell id="1" parent="0"/>
                <mxCell id="2" value="" style="shape=image;verticalLabelPosition=bottom;labelBackgroundColor=default;verticalAlign=top;aspect=fixed;imageAspect=0;image=https://docs.astronomer.io/assets/images/airflow_component_architecture-27d643208ece6763600a6ecbcc959c2f.png;" vertex="1" parent="1">
                    <mxGeometry x="120" y="60" width="520" height="340" as="geometry"/>
                </mxCell>
            </root>
        </mxGraphModel>
    </diagram>
</mxfile>